<svg xmlns="http://www.w3.org/2000/svg" width="1920" height="1080"><path d="M357,-348L651,-281L1543,-348Z" fill="#cfcfcf" stroke="#cfcfcf" stroke-width="1.51"/><path d="M1390,1374L1024,1348L1632,1425Z" fill="#3a3a3a" stroke="#3a3a3a" stroke-width="1.51"/><path d="M1024,1348L534,1406L1632,1425Z" fill="#484848" stroke="#484848" stroke-width="1.51"/><path d="M534,1406L304,1438L1632,1425Z" fill="#515151" stroke="#515151" stroke-width="1.51"/><path d="M1543,-348L1852,-202L2159,-311Z" fill="#8e8e8e" stroke="#8e8e8e" stroke-width="1.51"/><path d="M1868,1319L1632,1425L2170,1322Z" fill="#1e1e1e" stroke="#1e1e1e" stroke-width="1.51"/><path d="M2159,-311L1960,-163L2188,31Z" fill="#7a7a7a" stroke="#7a7a7a" stroke-width="1.51"/><path d="M1960,-163L2061,78L2188,31Z" fill="#767676" stroke="#767676" stroke-width="1.51"/><path d="M2061,78L1985,390L2204,351Z" fill="#666666" stroke="#666666" stroke-width="1.51"/><path d="M2188,31L2061,78L2204,351Z" fill="#696969" stroke="#696969" stroke-width="1.51"/><path d="M2131,772L1944,844L2214,999Z" fill="#3a3a3a" stroke="#3a3a3a" stroke-width="1.51"/><path d="M2204,351L2151,494L2214,999Z" fill="#484848" stroke="#484848" stroke-width="1.51"/><path d="M2151,494L2131,772L2214,999Z" fill="#3f3f3f" stroke="#3f3f3f" stroke-width="1.51"/><path d="M2214,999L1897,1104L2226,1047Z" fill="#2c2c2c" stroke="#2c2c2c" stroke-width="1.51"/><path d="M1897,1104L2170,1322L2226,1047Z" fill="#232323" stroke="#232323" stroke-width="1.51"/><path d="M2204,351L2214,999L2226,1047Z" fill="#393939" stroke="#393939" stroke-width="1.51"/><path d="M1722,1357L1632,1425L1868,1319Z" fill="#272727" stroke="#272727" stroke-width="1.51"/><path d="M1937,737L2131,772L2151,494Z" fill="#4a4a4a" stroke="#4a4a4a" stroke-width="1.51"/><path d="M1944,844L1897,1104L2214,999Z" fill="#373737" stroke="#373737" stroke-width="1.51"/><path d="M1985,390L2151,494L2204,351Z" fill="#5b5b5b" stroke="#5b5b5b" stroke-width="1.51"/><path d="M1899,518L1937,737L2151,494Z" fill="#545454" stroke="#545454" stroke-width="1.51"/><path d="M1897,1104L1868,1319L2170,1322Z" fill="#212121" stroke="#212121" stroke-width="1.51"/><path d="M1892,127L1985,390L2061,78Z" fill="#707070" stroke="#707070" stroke-width="1.51"/><path d="M1852,-202L1960,-163L2159,-311Z" fill="#838383" stroke="#838383" stroke-width="1.51"/><path d="M1985,390L1899,518L2151,494Z" fill="#5c5c5c" stroke="#5c5c5c" stroke-width="1.51"/><path d="M1960,-163L1920,-134L2061,78Z" fill="#7e7e7e" stroke="#7e7e7e" stroke-width="1.51"/><path d="M1937,737L1944,844L2131,772Z" fill="#454545" stroke="#454545" stroke-width="1.51"/><path d="M1892,127L1845,335L1985,390Z" fill="#707070" stroke="#707070" stroke-width="1.51"/><path d="M1920,-134L1892,127L2061,78Z" fill="#7b7b7b" stroke="#7b7b7b" stroke-width="1.51"/><path d="M651,-281L1239,-230L1543,-348Z" fill="#bcbcbc" stroke="#bcbcbc" stroke-width="1.51"/><path d="M1828,103L1892,127L1920,-134Z" fill="#808080" stroke="#808080" stroke-width="1.51"/><path d="M1853,-130L1828,103L1920,-134Z" fill="#858585" stroke="#858585" stroke-width="1.51"/><path d="M1798,1071L1897,1104L1944,844Z" fill="#3d3d3d" stroke="#3d3d3d" stroke-width="1.51"/><path d="M1845,335L1899,518L1985,390Z" fill="#666666" stroke="#666666" stroke-width="1.51"/><path d="M1899,518L1772,740L1937,737Z" fill="#565656" stroke="#565656" stroke-width="1.51"/><path d="M1704,980L1798,1071L1944,844Z" fill="#454545" stroke="#454545" stroke-width="1.51"/><path d="M1852,-202L1920,-134L1960,-163Z" fill="#868686" stroke="#868686" stroke-width="1.51"/><path d="M1937,737L1772,740L1944,844Z" fill="#4e4e4e" stroke="#4e4e4e" stroke-width="1.51"/><path d="M1772,740L1704,980L1944,844Z" fill="#4d4d4d" stroke="#4d4d4d" stroke-width="1.51"/><path d="M1828,103L1845,335L1892,127Z" fill="#7a7a7a" stroke="#7a7a7a" stroke-width="1.51"/><path d="M1798,1071L1868,1319L1897,1104Z" fill="#2f2f2f" stroke="#2f2f2f" stroke-width="1.51"/><path d="M1845,335L1716,460L1899,518Z" fill="#6b6b6b" stroke="#6b6b6b" stroke-width="1.51"/><path d="M1716,460L1772,740L1899,518Z" fill="#636363" stroke="#636363" stroke-width="1.51"/><path d="M1852,-202L1853,-130L1920,-134Z" fill="#888888" stroke="#888888" stroke-width="1.51"/><path d="M1716,460L1621,606L1772,740Z" fill="#676767" stroke="#676767" stroke-width="1.51"/><path d="M1617,1149L1722,1357L1798,1071Z" fill="#363636" stroke="#363636" stroke-width="1.51"/><path d="M1798,1071L1722,1357L1868,1319Z" fill="#2c2c2c" stroke="#2c2c2c" stroke-width="1.51"/><path d="M1828,103L1592,209L1845,335Z" fill="#7f7f7f" stroke="#7f7f7f" stroke-width="1.51"/><path d="M1520,-47L1828,103L1853,-130Z" fill="#8e8e8e" stroke="#8e8e8e" stroke-width="1.51"/><path d="M1852,-202L1520,-47L1853,-130Z" fill="#929292" stroke="#929292" stroke-width="1.51"/><path d="M1592,209L1655,421L1845,335Z" fill="#7e7e7e" stroke="#7e7e7e" stroke-width="1.51"/><path d="M1543,-348L1520,-47L1852,-202Z" fill="#9d9d9d" stroke="#9d9d9d" stroke-width="1.51"/><path d="M1655,421L1716,460L1845,335Z" fill="#747474" stroke="#747474" stroke-width="1.51"/><path d="M1520,-47L1592,209L1828,103Z" fill="#909090" stroke="#909090" stroke-width="1.51"/><path d="M1554,810L1704,980L1772,740Z" fill="#575757" stroke="#575757" stroke-width="1.51"/><path d="M1704,980L1617,1149L1798,1071Z" fill="#434343" stroke="#434343" stroke-width="1.51"/><path d="M1621,606L1554,810L1772,740Z" fill="#636363" stroke="#636363" stroke-width="1.51"/><path d="M1435,-214L1520,-47L1543,-348Z" fill="#a6a6a6" stroke="#a6a6a6" stroke-width="1.51"/><path d="M1558,981L1617,1149L1704,980Z" fill="#4c4c4c" stroke="#4c4c4c" stroke-width="1.51"/><path d="M1554,810L1558,981L1704,980Z" fill="#575757" stroke="#575757" stroke-width="1.51"/><path d="M1655,421L1621,606L1716,460Z" fill="#737373" stroke="#737373" stroke-width="1.51"/><path d="M1617,1149L1632,1425L1722,1357Z" fill="#303030" stroke="#303030" stroke-width="1.51"/><path d="M1520,-47L1400,169L1592,209Z" fill="#979797" stroke="#979797" stroke-width="1.51"/><path d="M1617,1149L1390,1374L1632,1425Z" fill="#363636" stroke="#363636" stroke-width="1.51"/><path d="M1592,209L1400,169L1655,421Z" fill="#8c8c8c" stroke="#8c8c8c" stroke-width="1.51"/><path d="M1400,169L1261,280L1655,421Z" fill="#909090" stroke="#909090" stroke-width="1.51"/><path d="M1261,280L1374,604L1655,421Z" fill="#858585" stroke="#858585" stroke-width="1.51"/><path d="M1374,604L1621,606L1655,421Z" fill="#767676" stroke="#767676" stroke-width="1.51"/><path d="M1374,604L1554,810L1621,606Z" fill="#6e6e6e" stroke="#6e6e6e" stroke-width="1.51"/><path d="M1558,981L1391,1063L1617,1149Z" fill="#4f4f4f" stroke="#4f4f4f" stroke-width="1.51"/><path d="M1391,1063L1390,1374L1617,1149Z" fill="#444444" stroke="#444444" stroke-width="1.51"/><path d="M651,-281L930,-182L1239,-230Z" fill="#c6c6c6" stroke="#c6c6c6" stroke-width="1.51"/><path d="M1374,604L1323,778L1554,810Z" fill="#6e6e6e" stroke="#6e6e6e" stroke-width="1.51"/><path d="M1554,810L1341,891L1558,981Z" fill="#5f5f5f" stroke="#5f5f5f" stroke-width="1.51"/><path d="M1341,891L1391,1063L1558,981Z" fill="#5c5c5c" stroke="#5c5c5c" stroke-width="1.51"/><path d="M1323,778L1341,891L1554,810Z" fill="#686868" stroke="#686868" stroke-width="1.51"/><path d="M1239,-230L1435,-214L1543,-348Z" fill="#adadad" stroke="#adadad" stroke-width="1.51"/><path d="M1435,-214L1310,-152L1520,-47Z" fill="#a8a8a8" stroke="#a8a8a8" stroke-width="1.51"/><path d="M1310,-152L1400,169L1520,-47Z" fill="#a2a2a2" stroke="#a2a2a2" stroke-width="1.51"/><path d="M1261,280L1116,466L1374,604Z" fill="#8e8e8e" stroke="#8e8e8e" stroke-width="1.51"/><path d="M1117,1129L1095,1276L1390,1374Z" fill="#4b4b4b" stroke="#4b4b4b" stroke-width="1.51"/><path d="M1117,1129L1390,1374L1391,1063Z" fill="#4d4d4d" stroke="#4d4d4d" stroke-width="1.51"/><path d="M1310,-152L1155,65L1400,169Z" fill="#a7a7a7" stroke="#a7a7a7" stroke-width="1.51"/><path d="M1239,-230L1310,-152L1435,-214Z" fill="#afafaf" stroke="#afafaf" stroke-width="1.51"/><path d="M1095,1276L1024,1348L1390,1374Z" fill="#474747" stroke="#474747" stroke-width="1.51"/><path d="M1341,891L1142,984L1391,1063Z" fill="#636363" stroke="#636363" stroke-width="1.51"/><path d="M1155,65L1261,280L1400,169Z" fill="#a0a0a0" stroke="#a0a0a0" stroke-width="1.51"/><path d="M1142,984L1117,1129L1391,1063Z" fill="#5e5e5e" stroke="#5e5e5e" stroke-width="1.51"/><path d="M1154,312L1116,466L1261,280Z" fill="#9a9a9a" stroke="#9a9a9a" stroke-width="1.51"/><path d="M1119,768L1323,778L1374,604Z" fill="#777777" stroke="#777777" stroke-width="1.51"/><path d="M1116,466L1119,768L1374,604Z" fill="#838383" stroke="#838383" stroke-width="1.51"/><path d="M1323,778L1119,768L1341,891Z" fill="#717171" stroke="#717171" stroke-width="1.51"/><path d="M1119,768L1142,984L1341,891Z" fill="#6f6f6f" stroke="#6f6f6f" stroke-width="1.51"/><path d="M1068,9L1155,65L1310,-152Z" fill="#b0b0b0" stroke="#b0b0b0" stroke-width="1.51"/><path d="M1239,-230L1068,9L1310,-152Z" fill="#b3b3b3" stroke="#b3b3b3" stroke-width="1.51"/><path d="M1037,-2L1068,9L1239,-230Z" fill="#b6b6b6" stroke="#b6b6b6" stroke-width="1.51"/><path d="M1155,65L1154,312L1261,280Z" fill="#a2a2a2" stroke="#a2a2a2" stroke-width="1.51"/><path d="M930,-182L1037,-2L1239,-230Z" fill="#bcbcbc" stroke="#bcbcbc" stroke-width="1.51"/><path d="M1116,466L906,589L1119,768Z" fill="#8b8b8b" stroke="#8b8b8b" stroke-width="1.51"/><path d="M906,589L895,728L1119,768Z" fill="#898989" stroke="#898989" stroke-width="1.51"/><path d="M1119,768L1035,1031L1142,984Z" fill="#717171" stroke="#717171" stroke-width="1.51"/><path d="M1035,1031L1117,1129L1142,984Z" fill="#666666" stroke="#666666" stroke-width="1.51"/><path d="M951,254L1116,466L1154,312Z" fill="#a1a1a1" stroke="#a1a1a1" stroke-width="1.51"/><path d="M1068,9L935,202L1155,65Z" fill="#b2b2b2" stroke="#b2b2b2" stroke-width="1.51"/><path d="M951,254L1154,312L1155,65Z" fill="#a8a8a8" stroke="#a8a8a8" stroke-width="1.51"/><path d="M935,202L951,254L1155,65Z" fill="#afafaf" stroke="#afafaf" stroke-width="1.51"/><path d="M895,728L1035,1031L1119,768Z" fill="#7b7b7b" stroke="#7b7b7b" stroke-width="1.51"/><path d="M1037,-2L935,202L1068,9Z" fill="#b5b5b5" stroke="#b5b5b5" stroke-width="1.51"/><path d="M951,254L906,589L1116,466Z" fill="#9d9d9d" stroke="#9d9d9d" stroke-width="1.51"/><path d="M927,1077L1095,1276L1117,1129Z" fill="#5c5c5c" stroke="#5c5c5c" stroke-width="1.51"/><path d="M1035,1031L927,1077L1117,1129Z" fill="#666666" stroke="#666666" stroke-width="1.51"/><path d="M718,1267L534,1406L1024,1348Z" fill="#5b5b5b" stroke="#5b5b5b" stroke-width="1.51"/><path d="M927,1077L1024,1348L1095,1276Z" fill="#565656" stroke="#565656" stroke-width="1.51"/><path d="M895,728L859,735L927,1077Z" fill="#828282" stroke="#828282" stroke-width="1.51"/><path d="M895,728L927,1077L1035,1031Z" fill="#777777" stroke="#777777" stroke-width="1.51"/><path d="M859,735L760,1038L927,1077Z" fill="#7c7c7c" stroke="#7c7c7c" stroke-width="1.51"/><path d="M733,358L906,589L951,254Z" fill="#a7a7a7" stroke="#a7a7a7" stroke-width="1.51"/><path d="M927,1077L811,1095L1024,1348Z" fill="#616161" stroke="#616161" stroke-width="1.51"/><path d="M811,1095L718,1267L1024,1348Z" fill="#5f5f5f" stroke="#5f5f5f" stroke-width="1.51"/><path d="M754,-115L935,202L1037,-2Z" fill="#bdbdbd" stroke="#bdbdbd" stroke-width="1.51"/><path d="M930,-182L754,-115L1037,-2Z" fill="#c3c3c3" stroke="#c3c3c3" stroke-width="1.51"/><path d="M733,358L813,601L906,589Z" fill="#a0a0a0" stroke="#a0a0a0" stroke-width="1.51"/><path d="M760,1038L811,1095L927,1077Z" fill="#717171" stroke="#717171" stroke-width="1.51"/><path d="M651,-281L709,-177L930,-182Z" fill="#d0d0d0" stroke="#d0d0d0" stroke-width="1.51"/><path d="M754,-115L739,218L935,202Z" fill="#c0c0c0" stroke="#c0c0c0" stroke-width="1.51"/><path d="M935,202L739,218L951,254Z" fill="#b4b4b4" stroke="#b4b4b4" stroke-width="1.51"/><path d="M739,218L733,358L951,254Z" fill="#b5b5b5" stroke="#b5b5b5" stroke-width="1.51"/><path d="M641,-49L739,218L754,-115Z" fill="#cacaca" stroke="#cacaca" stroke-width="1.51"/><path d="M645,798L760,1038L859,735Z" fill="#898989" stroke="#898989" stroke-width="1.51"/><path d="M813,601L859,735L895,728Z" fill="#909090" stroke="#909090" stroke-width="1.51"/><path d="M813,601L895,728L906,589Z" fill="#939393" stroke="#939393" stroke-width="1.51"/><path d="M709,-177L754,-115L930,-182Z" fill="#cdcdcd" stroke="#cdcdcd" stroke-width="1.51"/><path d="M813,601L645,798L859,735Z" fill="#939393" stroke="#939393" stroke-width="1.51"/><path d="M645,798L601,1014L760,1038Z" fill="#878787" stroke="#878787" stroke-width="1.51"/><path d="M760,1038L718,1267L811,1095Z" fill="#6e6e6e" stroke="#6e6e6e" stroke-width="1.51"/><path d="M592,623L645,798L813,601Z" fill="#9c9c9c" stroke="#9c9c9c" stroke-width="1.51"/><path d="M733,358L581,418L813,601Z" fill="#acacac" stroke="#acacac" stroke-width="1.51"/><path d="M581,418L592,623L813,601Z" fill="#a7a7a7" stroke="#a7a7a7" stroke-width="1.51"/><path d="M641,-49L491,56L739,218Z" fill="#cccccc" stroke="#cccccc" stroke-width="1.51"/><path d="M535,1141L718,1267L760,1038Z" fill="#727272" stroke="#727272" stroke-width="1.51"/><path d="M601,1014L535,1141L760,1038Z" fill="#7d7d7d" stroke="#7d7d7d" stroke-width="1.51"/><path d="M581,418L733,358L739,218Z" fill="#b8b8b8" stroke="#b8b8b8" stroke-width="1.51"/><path d="M709,-177L641,-49L754,-115Z" fill="#d1d1d1" stroke="#d1d1d1" stroke-width="1.51"/><path d="M451,263L581,418L739,218Z" fill="#c0c0c0" stroke="#c0c0c0" stroke-width="1.51"/><path d="M491,56L451,263L739,218Z" fill="#c8c8c8" stroke="#c8c8c8" stroke-width="1.51"/><path d="M535,1141L534,1406L718,1267Z" fill="#696969" stroke="#696969" stroke-width="1.51"/><path d="M-237,-285L223,-287L357,-348Z" fill="#f1f1f1" stroke="#f1f1f1" stroke-width="1.51"/><path d="M651,-281L641,-49L709,-177Z" fill="#d5d5d5" stroke="#d5d5d5" stroke-width="1.51"/><path d="M328,-10L491,56L641,-49Z" fill="#d6d6d6" stroke="#d6d6d6" stroke-width="1.51"/><path d="M357,-348L328,-10L641,-49Z" fill="#dfdfdf" stroke="#dfdfdf" stroke-width="1.51"/><path d="M592,623L409,734L645,798Z" fill="#9e9e9e" stroke="#9e9e9e" stroke-width="1.51"/><path d="M400,941L601,1014L645,798Z" fill="#8e8e8e" stroke="#8e8e8e" stroke-width="1.51"/><path d="M409,734L400,941L645,798Z" fill="#999999" stroke="#999999" stroke-width="1.51"/><path d="M357,-348L641,-49L651,-281Z" fill="#dddddd" stroke="#dddddd" stroke-width="1.51"/><path d="M581,418L287,585L592,623Z" fill="#b0b0b0" stroke="#b0b0b0" stroke-width="1.51"/><path d="M400,941L535,1141L601,1014Z" fill="#868686" stroke="#868686" stroke-width="1.51"/><path d="M328,-10L378,41L491,56Z" fill="#d8d8d8" stroke="#d8d8d8" stroke-width="1.51"/><path d="M287,585L409,734L592,623Z" fill="#a9a9a9" stroke="#a9a9a9" stroke-width="1.51"/><path d="M304,1438L534,1406L535,1141Z" fill="#6a6a6a" stroke="#6a6a6a" stroke-width="1.51"/><path d="M451,263L229,470L581,418Z" fill="#c0c0c0" stroke="#c0c0c0" stroke-width="1.51"/><path d="M229,470L287,585L581,418Z" fill="#b9b9b9" stroke="#b9b9b9" stroke-width="1.51"/><path d="M378,41L451,263L491,56Z" fill="#d1d1d1" stroke="#d1d1d1" stroke-width="1.51"/><path d="M400,941L296,1046L535,1141Z" fill="#888888" stroke="#888888" stroke-width="1.51"/><path d="M296,1046L304,1438L535,1141Z" fill="#777777" stroke="#777777" stroke-width="1.51"/><path d="M296,1046L135,1244L304,1438Z" fill="#787878" stroke="#787878" stroke-width="1.51"/><path d="M223,-287L328,-10L357,-348Z" fill="#e7e7e7" stroke="#e7e7e7" stroke-width="1.51"/><path d="M245,782L400,941L409,734Z" fill="#9e9e9e" stroke="#9e9e9e" stroke-width="1.51"/><path d="M175,389L229,470L451,263Z" fill="#c7c7c7" stroke="#c7c7c7" stroke-width="1.51"/><path d="M199,202L175,389L451,263Z" fill="#cecece" stroke="#cecece" stroke-width="1.51"/><path d="M378,41L199,202L451,263Z" fill="#d2d2d2" stroke="#d2d2d2" stroke-width="1.51"/><path d="M-13,1302L-224,1344L304,1438Z" fill="#757575" stroke="#757575" stroke-width="1.51"/><path d="M245,782L195,860L400,941Z" fill="#9e9e9e" stroke="#9e9e9e" stroke-width="1.51"/><path d="M287,585L245,782L409,734Z" fill="#aaaaaa" stroke="#aaaaaa" stroke-width="1.51"/><path d="M195,860L296,1046L400,941Z" fill="#969696" stroke="#969696" stroke-width="1.51"/><path d="M223,-287L134,-41L328,-10Z" fill="#e6e6e6" stroke="#e6e6e6" stroke-width="1.51"/><path d="M328,-10L199,202L378,41Z" fill="#dadada" stroke="#dadada" stroke-width="1.51"/><path d="M-237,-285L-32,-210L223,-287Z" fill="#f4f4f4" stroke="#f4f4f4" stroke-width="1.51"/><path d="M82,1181L135,1244L296,1046Z" fill="#848484" stroke="#848484" stroke-width="1.51"/><path d="M134,-41L199,202L328,-10Z" fill="#dedede" stroke="#dedede" stroke-width="1.51"/><path d="M135,1244L-13,1302L304,1438Z" fill="#757575" stroke="#757575" stroke-width="1.51"/><path d="M195,860L82,1181L296,1046Z" fill="#929292" stroke="#929292" stroke-width="1.51"/><path d="M-102,534L245,782L287,585Z" fill="#b5b5b5" stroke="#b5b5b5" stroke-width="1.51"/><path d="M229,470L-102,534L287,585Z" fill="#bebebe" stroke="#bebebe" stroke-width="1.51"/><path d="M-59,910L82,1181L195,860Z" fill="#9b9b9b" stroke="#9b9b9b" stroke-width="1.51"/><path d="M134,-41L3,54L199,202Z" fill="#e1e1e1" stroke="#e1e1e1" stroke-width="1.51"/><path d="M-32,-210L134,-41L223,-287Z" fill="#ededed" stroke="#ededed" stroke-width="1.51"/><path d="M-129,795L195,860L245,782Z" fill="#a8a8a8" stroke="#a8a8a8" stroke-width="1.51"/><path d="M-102,534L-129,795L245,782Z" fill="#b4b4b4" stroke="#b4b4b4" stroke-width="1.51"/><path d="M175,389L-102,534L229,470Z" fill="#c5c5c5" stroke="#c5c5c5" stroke-width="1.51"/><path d="M-129,795L-59,910L195,860Z" fill="#a8a8a8" stroke="#a8a8a8" stroke-width="1.51"/><path d="M-85,367L175,389L199,202Z" fill="#d2d2d2" stroke="#d2d2d2" stroke-width="1.51"/><path d="M3,54L-85,367L199,202Z" fill="#dbdbdb" stroke="#dbdbdb" stroke-width="1.51"/><path d="M-85,367L-102,534L175,389Z" fill="#cbcbcb" stroke="#cbcbcb" stroke-width="1.51"/><path d="M-59,910L55,1192L82,1181Z" fill="#8f8f8f" stroke="#8f8f8f" stroke-width="1.51"/><path d="M-32,-210L-4,-23L134,-41Z" fill="#ececec" stroke="#ececec" stroke-width="1.51"/><path d="M-4,-23L3,54L134,-41Z" fill="#e7e7e7" stroke="#e7e7e7" stroke-width="1.51"/><path d="M82,1181L55,1192L135,1244Z" fill="#818181" stroke="#818181" stroke-width="1.51"/><path d="M55,1192L-13,1302L135,1244Z" fill="#7e7e7e" stroke="#7e7e7e" stroke-width="1.51"/><path d="M-59,910L-249,1190L55,1192Z" fill="#929292" stroke="#929292" stroke-width="1.51"/><path d="M-146,30L-85,367L3,54Z" fill="#e2e2e2" stroke="#e2e2e2" stroke-width="1.51"/><path d="M-249,1190L-13,1302L55,1192Z" fill="#838383" stroke="#838383" stroke-width="1.51"/><path d="M-253,676L-129,795L-102,534Z" fill="#bbbbbb" stroke="#bbbbbb" stroke-width="1.51"/><path d="M-146,30L-297,211L-85,367Z" fill="#e1e1e1" stroke="#e1e1e1" stroke-width="1.51"/><path d="M-174,878L-249,1190L-59,910Z" fill="#a0a0a0" stroke="#a0a0a0" stroke-width="1.51"/><path d="M-32,-210L-146,30L-4,-23Z" fill="#ededed" stroke="#ededed" stroke-width="1.51"/><path d="M-4,-23L-146,30L3,54Z" fill="#e9e9e9" stroke="#e9e9e9" stroke-width="1.51"/><path d="M-249,1190L-224,1344L-13,1302Z" fill="#818181" stroke="#818181" stroke-width="1.51"/><path d="M-297,211L-167,385L-85,367Z" fill="#dadada" stroke="#dadada" stroke-width="1.51"/><path d="M-237,-285L-146,30L-32,-210Z" fill="#f3f3f3" stroke="#f3f3f3" stroke-width="1.51"/><path d="M-193,543L-253,676L-102,534Z" fill="#c2c2c2" stroke="#c2c2c2" stroke-width="1.51"/><path d="M-167,385L-102,534L-85,367Z" fill="#cecece" stroke="#cecece" stroke-width="1.51"/><path d="M-129,795L-174,878L-59,910Z" fill="#aaaaaa" stroke="#aaaaaa" stroke-width="1.51"/><path d="M-167,385L-193,543L-102,534Z" fill="#cacaca" stroke="#cacaca" stroke-width="1.51"/><path d="M-253,676L-174,878L-129,795Z" fill="#b2b2b2" stroke="#b2b2b2" stroke-width="1.51"/><path d="M-237,-285L-297,211L-146,30Z" fill="#efefef" stroke="#efefef" stroke-width="1.51"/><path d="M-297,211L-193,543L-167,385Z" fill="#d5d5d5" stroke="#d5d5d5" stroke-width="1.51"/><path d="M-253,676L-249,1190L-174,878Z" fill="#a8a8a8" stroke="#a8a8a8" stroke-width="1.51"/><path d="M-297,211L-253,676L-193,543Z" fill="#cdcdcd" stroke="#cdcdcd" stroke-width="1.51"/><path d="M-253,676L-297,211L-249,1190Z" fill="#bbbbbb" stroke="#bbbbbb" stroke-width="1.51"/></svg>